<?xml version="1.0" encoding="UTF-8"?>
<svg version="1.1" xmlns="http://www.w3.org/2000/svg" width="84" height="82">
<path d="M0 0 C13.2 0 26.4 0 40 0 C40 10 40 10 38.703125 12.609375 C34.23090752 14.91011116 29.68944147 14.4129765 24.75 14.25 C23.71875 14.23195313 22.6875 14.21390625 21.625 14.1953125 C19.08238936 14.14822712 16.54166838 14.0824805 14 14 C14.02094727 14.61520508 14.04189453 15.23041016 14.06347656 15.86425781 C14.14677017 18.65933809 14.19870013 21.45415715 14.25 24.25 C14.30027344 25.70212891 14.30027344 25.70212891 14.3515625 27.18359375 C14.44751524 34.14016735 14.44751524 34.14016735 12.609375 37.671875 C10 39 10 39 0 39 C0 26.13 0 13.26 0 0 Z " fill="#1D5C97" transform="translate(44,43)"/>
<path d="M0 0 C13.2 0 26.4 0 40 0 C40 12.87 40 25.74 40 39 C30 39 30 39 27.390625 37.671875 C25.1373445 33.34253831 25.5840425 29.04361862 25.75 24.25 C25.76804687 23.26644531 25.78609375 22.28289062 25.8046875 21.26953125 C25.85175874 18.84536217 25.91749258 16.42317941 26 14 C25.35450195 14.02094727 24.70900391 14.04189453 24.04394531 14.06347656 C21.11278932 14.14674205 18.18188223 14.19869206 15.25 14.25 C14.23421875 14.28351562 13.2184375 14.31703125 12.171875 14.3515625 C4.87012803 14.44763812 4.87012803 14.44763812 1.296875 12.609375 C0 10 0 10 0 0 Z " fill="#1D5C97" transform="translate(0,43)"/>
<path d="M0 0 C10 0 10 0 12.609375 1.328125 C14.8626555 5.65746169 14.4159575 9.95638138 14.25 14.75 C14.23195313 15.73355469 14.21390625 16.71710937 14.1953125 17.73046875 C14.14824126 20.15463783 14.08250742 22.57682059 14 25 C14.64549805 24.97905273 15.29099609 24.95810547 15.95605469 24.93652344 C18.88721068 24.85325795 21.81811777 24.80130794 24.75 24.75 C25.76578125 24.71648438 26.7815625 24.68296875 27.828125 24.6484375 C35.12987197 24.55236188 35.12987197 24.55236188 38.703125 26.390625 C40 29 40 29 40 39 C26.8 39 13.6 39 0 39 C0 26.13 0 13.26 0 0 Z " fill="#70A690" transform="translate(44,0)"/>
<path d="M0 0 C0 12.87 0 25.74 0 39 C-13.2 39 -26.4 39 -40 39 C-40 29 -40 29 -38.703125 26.390625 C-34.23090752 24.08988884 -29.68944147 24.5870235 -24.75 24.75 C-23.71875 24.76804687 -22.6875 24.78609375 -21.625 24.8046875 C-19.08238936 24.85177288 -16.54166838 24.9175195 -14 25 C-14.02094727 24.38479492 -14.04189453 23.76958984 -14.06347656 23.13574219 C-14.14677017 20.34066191 -14.19870013 17.54584285 -14.25 14.75 C-14.30027344 13.29787109 -14.30027344 13.29787109 -14.3515625 11.81640625 C-14.44751524 4.85983265 -14.44751524 4.85983265 -12.609375 1.328125 C-10 0 -10 0 0 0 Z " fill="#1D5C96" transform="translate(40,0)"/>
</svg>
